/* XPM */
static char *tm_copy1673975058[] = {
/* columns rows colors chars-per-pixel */
"24 24 17 1 ",
"  c gray13",
". c #282828",
"X c #3F3F3F",
"o c #404040",
"O c #545454",
"+ c #7A7A7A",
"@ c #9A9A9A",
"# c #ABABAB",
"$ c #ACACAC",
"% c #C7C7C7",
"& c #C8C8C8",
"* c #CCCCCC",
"= c #D2D2D2",
"- c #DDDDDD",
"; c #F2F2F2",
": c #F5F5F5",
"> c #FFFFFF",
/* pixels */
">>>>>>>>>>>>>>>>>>>>>>>>",
">>>>>>>>>>>>>>>>>>>>>>>>",
">>>>>>>-O         .@>>>>",
">>>>>>:             @>>>",
">>>>>:*  &&&&&&&&&$ .>>>",
">>>>- %  >>>>>>>>>&  >>>",
">>>>O %  >>>>>>>>>&  >>>",
">>>>  %  >>>>>>>>>&  >>>",
">>>>  &  >>>>>>>>>&  >>>",
">>>>  &  >>>>>>>>>&  >>>",
">>>>  &  >>>>>>>>>&  >>>",
">>>>  &  >>>>>>>>>&  >>>",
">>>>  &  >>>>>>>>>&  >>>",
">>>>  &  >>>>>>>>>&  >>>",
">>>>  &  >>>>>>>>>&  >>>",
">>>>  &  >>>>>>>>>&  >>>",
">>>>  &  >>>>>>>>>&  >>>",
">>>>  &  >>>>>>>>>&  >>>",
">>>>o #             O>>>",
">>>>@  +            ->>>",
">>>>;   $&&&&%%%&&&;>>>>",
">>>>>=            :>>>>>",
">>>>>>;@X       O->>>>>>",
">>>>>>>>>>>>>>>>>>>>>>>>"
};
