/* XPM */
static char *_b7d83251b97bbbff7a69f35389b0d56[] = {
/* columns rows colors chars-per-pixel */
"75 75 14 1 ",
"  c None",
". c #202020",
"X c gray13",
"o c #222222",
"O c #214DC3",
"+ c #214EC3",
"@ c #214FC3",
"# c #224EC3",
"$ c #214DC4",
"% c #204EC4",
"& c #214EC4",
"* c #214FC4",
"= c #214FC5",
"- c #224EC4",
/* pixels */
"                                                                           ",
"                                                                           ",
"                                                                           ",
"                                                                           ",
"                                                                           ",
"                                                                           ",
"                                                                           ",
"                                                                           ",
"                                                                           ",
"                  XXXXXXXXXXXXXXXXXXXXXXXXXXXXXXXXXXXXXXX                  ",
"               XXXXXXXXXXXXXXXXXXXXXXXXXXXXXXXXXXXXXXXXXXXXX               ",
"             XXXXXXXXXXXXXXXXXXXXXXXXXXXXXXXXXXXXXXXXXXXXXXXXX             ",
"            XXXXXXXXXXXXXXXXXXXXXXXXXXXXXXXXXXXXXXXXXXXXXXXXXXX            ",
"           XXXXXXXXXXXXXXXXXXXXXXXXXXXXXXXXXXXXXXXXXXXXXXXXXXXXX           ",
"           XXXXXX                                         XXXXXX           ",
"          XXXXXX                                           XXXXXX          ",
"          XXXXX                                             XXXXX          ",
"          XXXX                                               XXXX          ",
"         XXXXX                                               XXXXX         ",
"         XXXXX                                               XXXXX         ",
"         oXXXX                                               XXXXo         ",
"         oXXXX                                               XXXXo         ",
"         oXXXX                                               XXXXo         ",
"         oXXXX                   -                           XXXXo         ",
"         oXXXX                  --%         ---%             XXXXo         ",
"         XXXXX                 *%--%        %-%-             XXXXo         ",
"         oXXXX                 %-%--        -%-%             XXXXo         ",
"         oXXXX                 -%-%-       -%-%-             XXXXo         ",
"         oXXXX                 -%--        +-%-%             XXXXo         ",
"         oXXXX                %--%-+       -%-%-             XXXXo         ",
"         oXXXX          ---%-%-%%--%-%---%-%-%-%-%--         XXXXo         ",
"         oXXXX          --%---%--%%-%-%-%-%-%-%-%-%--        XXXXo         ",
"         oXXXX          -%--%-%-%--%-%-%-%-%-%-%-%-%-        XXXXo         ",
"         oXXXX          %-%--%-%-%--%-%---%-%---%-%-*        XXXXo         ",
"         oXXXX               -%-%-%       -%-%-              XXXXo         ",
"         oXXXX               %-%-%        %-%-+              XXXXo         ",
"         oXXXX               -----        -%--               XXXXo         ",
"         oXXXX               --%%-       ---%-               XXXXo         ",
"         oXXXX               -%--        -%--%               XXXXo         ",
"         oXXXX              -%-%-        %-%-+               XXXXo         ",
"         oXXXX              --%--       --%--%               XXXXo         ",
"         oXXXX        %--%---%-%-%--%----%-%%-----*          XXXXo         ",
"         oXXXX        --%-%-%-%--%-%-%-%%-%--%-%---          XXXXo         ",
"         oXXXX        -%-%-%-%-%%-%-%-%--%-%%-%--%-          XXXXo         ",
"         oXXXX         ------%-%-%---%--%-%-%---%--          XXXXo         ",
"         oXXXX             -%-%-       +-%-%+                XXXXo         ",
"         oXXXX             %-%--        %-%-                 XXXXo         ",
"         XXXXX             -%--*       --%-%                 XXXXo         ",
"         oXXXX             --%-        %%---                 XXXXo         ",
"         oXXXX             -%-%        --%-*                 XXXXo         ",
"         oXXXX             ----         %--                  XXXXo         ",
"         oXXXX                                               XXXXo         ",
"         oXXXX                                               XXXXo         ",
"         oXXXX                                               XXXXo         ",
"         oXXXX                                               XXXXX         ",
"         XXXXX                                               XXXXX         ",
"         XXXXX                                               XXXXX         ",
"          XXXX                                               XXXX          ",
"          XXXXX                                             XXXXX          ",
"          XXXXXX                                           XXXXXX          ",
"           XXXXXX                                         XXXXXX           ",
"           XXXXXXXXXXXXXXXXXXXXXXXXXXXXXXXXXXXXXXXXXXXXXXXXXXXXX           ",
"            XXXXXXXXXXXXXXXXXXXXXXXXXXXXXXXXXXXXXXXXXXXXXXXXXXX            ",
"             oXXXXXXXXXXXXXXXXXXXXXXXXXXXXXXXXXXXXXXXXXXXXXXXX             ",
"               XXXXXXXXXXXXXXXXXXXXXXXXXXXXXXXXXXXXXXXXXXXXX               ",
"                  XXXXXXXXXXXXXXXXXXXXXXXXXXXXXXXXXXXXXXX                  ",
"                                                                           ",
"                                                                           ",
"                                                                           ",
"                                                                           ",
"                                                                           ",
"                                                                           ",
"                                                                           ",
"                                                                           ",
"                                                                           "
};
