<svg width="24" height="24" viewBox="0 0 24 24" fill="none" xmlns="http://www.w3.org/2000/svg">
<g clip-path="url(#clip0_4_66)">
<path fill-rule="evenodd" clip-rule="evenodd" d="M11.3745 7.83432C11.2643 7.66895 11.0929 7.55409 10.898 7.515C10.7031 7.47614 10.5007 7.51623 10.3353 7.62648C10.1699 7.73674 10.0551 7.90812 10.016 8.103L9.736 9.5H8.25C8.05109 9.5 7.86032 9.57902 7.71967 9.71967C7.57902 9.86032 7.5 10.0511 7.5 10.25C7.5 10.4489 7.57902 10.6397 7.71967 10.7803C7.86032 10.921 8.05109 11 8.25 11H9.436L9.036 13H7.75C7.55109 13 7.36032 13.079 7.21967 13.2197C7.07902 13.3603 7 13.5511 7 13.75C7 13.9489 7.07902 14.1397 7.21967 14.2803C7.36032 14.421 7.55109 14.5 7.75 14.5H8.735L8.515 15.603C8.48246 15.7952 8.52606 15.9926 8.63655 16.1532C8.74705 16.3139 8.91576 16.4251 9.10691 16.4635C9.29807 16.5019 9.49665 16.4643 9.66057 16.3587C9.82449 16.2532 9.94085 16.0879 9.985 15.898L10.265 14.5H12.735L12.515 15.603C12.4825 15.7952 12.5261 15.9926 12.6366 16.1532C12.747 16.3139 12.9158 16.4251 13.1069 16.4635C13.2981 16.5019 13.4967 16.4643 13.6606 16.3587C13.8245 16.2532 13.9409 16.0879 13.985 15.898L14.265 14.5H15.75C15.9489 14.5 16.1397 14.421 16.2803 14.2803C16.421 14.1397 16.5 13.9489 16.5 13.75C16.5 13.5511 16.421 13.3603 16.2803 13.2197C16.1397 13.079 15.9489 13 15.75 13H14.565L14.965 11H16.25C16.4489 11 16.6397 10.921 16.7803 10.7803C16.921 10.6397 17 10.4489 17 10.25C17 10.0511 16.921 9.86032 16.7803 9.71967C16.6397 9.57902 16.4489 9.5 16.25 9.5H15.266L15.486 8.397C15.5176 8.20513 15.4734 8.00851 15.3627 7.8486C15.2521 7.6887 15.0837 7.578 14.893 7.53987C14.7024 7.50174 14.5043 7.53914 14.3407 7.6442C14.1771 7.74926 14.0607 7.91376 14.016 8.103L13.736 9.5H11.266L11.486 8.397C11.5249 8.20208 11.4848 7.9997 11.3745 7.83432ZM13.035 13H10.565L10.965 11H13.435L13.035 13Z" fill="#214EC4"/>
<path fill-rule="evenodd" clip-rule="evenodd" d="M3 6.25C3 5.38805 3.34241 4.5614 3.9519 3.9519C4.5614 3.34241 5.38805 3 6.25 3H17.75C18.612 3 19.4386 3.34241 20.0481 3.9519C20.6576 4.5614 21 5.38805 21 6.25V17.75C21 18.612 20.6576 19.4386 20.0481 20.0481C19.4386 20.6576 18.612 21 17.75 21H6.25C5.38805 21 4.5614 20.6576 3.9519 20.0481C3.34241 19.4386 3 18.612 3 17.75V6.25ZM5.01256 5.01256C5.34075 4.68437 5.78587 4.5 6.25 4.5H17.75C18.2141 4.5 18.6592 4.68437 18.9874 5.01256C19.3156 5.34075 19.5 5.78587 19.5 6.25V17.75C19.5 18.2141 19.3156 18.6592 18.9874 18.9874C18.6592 19.3156 18.2141 19.5 17.75 19.5H6.25C5.284 19.5 4.5 18.716 4.5 17.75V6.25C4.5 5.78587 4.68437 5.34075 5.01256 5.01256Z" fill="#212121"/>
</g>
<defs>
<clipPath id="clip0_4_66">
<rect width="24" height="24" fill="white"/>
</clipPath>
</defs>
</svg>
